# xmcd
#
# Track frame offsets: 
#        150
#        8588
#        18592
#        31436
#        40254
#        49104
#        61406
#        74701
#        88871
#        99259
#        111360
#        121355
#        129118
#        139834
#
# Disc length: 2056 seconds
#
# Revision: 0
# Processed by: cddbd v1.5.1PL2 Copyright (c) Steve Scherf et al.
# Submitted via: ExactAudioCopy v0.95b4
#
DISCID=bf08060e
DTITLE=Various Artist - The RockAbilly Legends Vol 8
DYEAR=1900
DGENRE=Rock and Roll
TTITLE0=Great Balls Of Fire
TTITLE1=Hey Porter
TTITLE2=Put Your Cut Clothes On
TTITLE3=Mean Little Mama
TTITLE4=Rock n' Ruby
TTITLE5=Big Man
TTITLE6=Wolf Is At Your Door
TTITLE7=Milk Cow Blues
TTITLE8=Let's Go, Let's Go, Let's Go
TTITLE9=Midnight Blues
TTITLE10=Everybody's Trying' To Be My Baby
TTITLE11=Hello Josephine
TTITLE12=Blue Jean Bop
TTITLE13=Story Of The Rockers
EXTD=
EXTT0=
EXTT1=
EXTT2=
EXTT3=
EXTT4=
EXTT5=
EXTT6=
EXTT7=
EXTT8=
EXTT9=
EXTT10=
EXTT11=
EXTT12=
EXTT13=
PLAYORDER=
